Coordinates
version=1
nRows=8
nColumns=63
inDegrees=yes

Units are S.I. units (second, meters, Newtons, ...)
If the header above contains a line with 'inDegrees', this indicates whether rotational values are in degrees (yes) or radians (no).

endheader
time	pelvis_tilt	pelvis_list	pelvis_rotation	pelvis_tx	pelvis_ty	pelvis_tz	hip_flexion_r	hip_adduction_r	hip_rotation_r	knee_angle_r	knee_angle_r_beta	ankle_angle_r	subtalar_angle_r	mtp_angle_r	hip_flexion_l	hip_adduction_l	hip_rotation_l	knee_angle_l	knee_angle_l_beta	ankle_angle_l	subtalar_angle_l	mtp_angle_l	L5_S1_Flex_Ext	L5_S1_Lat_Bending	L5_S1_axial_rotation	L4_L5_Flex_Ext	L4_L5_Lat_Bending	L4_L5_axial_rotation	L3_L4_Flex_Ext	L3_L4_Lat_Bending	L3_L4_axial_rotation	L2_L3_Flex_Ext	L2_L3_Lat_Bending	L2_L3_axial_rotation	L1_L2_Flex_Ext	L1_L2_Lat_Bending	L1_L2_axial_rotation	L1_T12_Flex_Ext	L1_T12_Lat_Bending	L1_T12_axial_rotation	Abs_r3	Abs_r2	Abs_r1	Abs_t1	Abs_t2	neck_flexion	neck_bending	neck_rotation	arm_flex_r	arm_add_r	arm_rot_r	elbow_flex_r	pro_sup_r	wrist_flex_r	wrist_dev_r	arm_flex_l	arm_add_l	arm_rot_l	elbow_flex_l	pro_sup_l	wrist_flex_l	wrist_dev_l
      2.76000000	     -5.15496129	     -4.00770712	     91.28807860	      0.28999147	      0.73244568	      0.78531137	     -6.21592134	      0.81686216	     -3.66086825	      0.17105758	      0.00298552	     21.25795858	    -10.08336438	      0.00000000	     -5.40377412	     -0.17662319	      5.98089240	      0.17120751	      0.00298813	     33.85441883	     -1.35451930	      0.00000000	      0.16803940	      0.39179083	     -0.18367042	      0.31206596	      0.52108180	     -0.19514982	      0.27607192	      0.95260022	     -0.19514982	      0.19205223	      0.95260022	     -0.16071162	      0.15604138	      0.79893986	     -0.14923222	      0.09601771	      0.60688399	     -0.13775282	      1.20028860	      4.43201621	     -1.02151979	      0.00000000	      0.00000000	     27.13871000	      4.01304686	     13.29244630	     16.12811750	    -10.96851978	    166.41252731	      9.92935426	      7.55497916	      1.34914178	     -6.98034449	     14.45842550	     -4.40248078	    171.48325364	      4.25121086	      9.79583577	     -4.10342764	     -4.31844112
      2.78000000	     -5.44248517	     -3.51875423	     91.33950357	      0.29177360	      0.73285981	      0.78347104	     -6.81931512	      0.62995085	     -4.17913080	      0.16583864	      0.00289443	     22.16239759	     -8.94635574	      0.00000000	     -5.99055365	     -0.01575553	      5.56759295	      0.16799579	      0.00293208	     33.97881265	     -0.84730008	      0.00000000	      0.12295439	      0.31392201	     -0.21158123	      0.22833860	      0.41751627	     -0.22480505	      0.20200177	      0.76326997	     -0.22480505	      0.14052458	      0.76326997	     -0.18513357	      0.11417545	      0.64014976	     -0.17190975	      0.07025614	      0.48626519	     -0.15868592	      0.87825093	      3.55114854	     -1.17675131	      0.00000000	      0.00000000	     27.00107900	      4.71445161	     11.91099097	     15.16789834	    -10.97197922	    166.73222508	      8.22067458	      8.82193420	      0.77589165	     -6.45323616	     13.96391214	     -5.85632630	    166.87761011	      5.48106927	      7.62122250	     -2.30470220	     -3.31434755
      2.80000000	     -5.49282627	     -3.31433366	     91.53897127	      0.29281929	      0.73301326	      0.78194834	     -7.13221482	      0.69814820	     -2.73132105	      0.15747458	      0.00274845	     21.78295793	    -11.26483578	      0.00000000	     -6.23406935	     -0.07224669	      4.97195595	      0.16742388	      0.00292210	     34.05699773	     -0.16991450	      0.00000000	      0.12449102	      0.27346950	     -0.33203250	      0.23119228	      0.36371444	     -0.35278453	      0.20452630	      0.66491374	     -0.35278453	      0.14228079	      0.66491374	     -0.29052844	      0.11560236	      0.55765901	     -0.26977641	      0.07113417	      0.42360426	     -0.24902437	      0.88922693	      3.09354169	     -1.84666515	      0.00000000	      0.00000000	     26.81853800	      5.29855030	     11.09773437	     14.24433318	    -10.63454687	    173.77266466	      5.92809209	      5.60897587	      0.21281290	     -6.00346448	     13.17061340	     -7.57529238	    155.26818752	      7.15641815	      8.72134633	     -1.50898369	     -2.66474636
      2.82000000	     -5.64921915	     -3.11083204	     92.02345555	      0.29347987	      0.73310626	      0.78115467	     -7.46674404	      0.69749585	     -3.13106762	      0.15483852	      0.00270244	     21.67329058	    -11.52388343	      0.00000000	     -6.43233805	     -0.05498154	      5.37078782	      0.16879805	      0.00294608	     33.85701761	     -0.28990050	      0.00000000	      0.10977659	      0.22134000	     -0.46073196	      0.20386611	      0.29438220	     -0.48952771	      0.18035197	      0.53816608	     -0.48952771	      0.12546367	      0.53816608	     -0.40314047	      0.10193855	      0.45135653	     -0.37434472	      0.06272635	      0.34285566	     -0.34554897	      0.78412324	      2.50384235	     -2.56245295	      0.00000000	      0.00000000	     26.73530680	      5.90124590	     10.46039592	     13.30127999	    -10.52099174	    175.07153734	      4.43476693	      5.12810531	     -0.90633930	     -5.61940773	     12.70290819	     -9.40591180	    147.11626639	      8.91664223	      7.67572769	     -0.79848491	     -2.58561117
      2.84000000	     -5.78818601	     -3.11702859	     92.54956569	      0.29374539	      0.73285445	      0.78126624	     -7.57100733	      0.70458637	     -3.42626787	      0.15621004	      0.00272638	     21.01100692	    -12.39196529	      0.00000000	     -6.37836540	     -0.03305125	      5.87520019	      0.17493577	      0.00305321	     33.56876517	     -0.51238513	      0.00000000	      0.10148398	      0.17960881	     -0.60025760	      0.18846591	      0.23887972	     -0.63777370	      0.16672804	      0.43670086	     -0.63777370	      0.11598604	      0.43670086	     -0.52522540	      0.09423803	      0.36625828	     -0.48770930	      0.05798795	      0.27821404	     -0.45019320	      0.72488995	      2.03177076	     -3.33845271	      0.00000000	      0.00000000	     26.75000951	      6.57505395	     10.59571006	     12.40245502	    -10.39739527	    176.26685906	      3.25838064	      4.69866289	     -2.37666518	     -5.48785391	     12.36791502	    -11.11000217	    142.98680427	     10.18563287	      7.27260660	     -0.38591448	     -3.05577882
      2.86000000	     -5.87135317	     -3.36516718	     93.18176443	      0.29353368	      0.73225742	      0.78232729	     -7.40170488	      0.76356369	     -4.58205001	      0.16253902	      0.00283684	     20.11552280	    -12.57007318	      0.00000000	     -6.02367878	     -0.04855695	      6.44171779	      0.18629548	      0.00325147	     33.27328414	     -0.60426102	      0.00000000	      0.10196354	      0.15330066	     -0.76700680	      0.18935649	      0.20388988	     -0.81494473	      0.16751590	      0.37273522	     -0.81494473	      0.11653413	      0.37273522	     -0.67113095	      0.09468334	      0.31261070	     -0.62319303	      0.05826197	      0.23746272	     -0.57525510	      0.72831535	      1.73416771	     -4.26586173	      0.00000000	      0.00000000	     26.94119554	      7.29917602	     11.56829807	     11.63919036	    -10.25183949	    177.82001722	      2.41013711	      5.05908749	     -4.16335990	     -5.54665701	     12.36842080	    -12.48083078	    143.81070887	     10.77188923	      8.25795998	     -0.05112514	     -3.84845498
      2.88000000	     -5.82875194	     -3.82310954	     93.67485807	      0.29300001	      0.73140744	      0.78442757	     -6.93918786	      0.89983099	     -5.17059475	      0.17089934	      0.00298276	     18.68766924	    -13.65083390	      0.00000000	     -5.41170009	     -0.12180514	      8.20858745	      0.19945822	      0.00348120	     32.61973898	     -2.46904357	      0.00000000	      0.11076658	      0.15263516	     -0.89932633	      0.20570461	      0.20300477	     -0.95553422	      0.18197841	      0.37111714	     -0.95553422	      0.12659512	      0.37111714	     -0.78691054	      0.10285784	      0.31125363	     -0.73070264	      0.06329202	      0.23643187	     -0.67449475	      0.79119458	      1.72663950	     -5.00178324	      0.00000000	      0.00000000	     27.20426532	      8.00807868	     13.13160568	     11.09327253	    -10.13641333	    181.82484681	      1.78205448	      4.60531713	     -5.68537802	     -5.59617810	     12.95662689	    -13.24675659	    149.86801967	     10.86634419	     10.45396854	     -0.00379748	     -4.72881017
      2.90000000	     -5.65131424	     -4.50658516	     94.52310165	      0.29161896	      0.73043152	      0.78758463	     -6.18595609	      1.17280543	     -6.61532470	      0.18404435	      0.00321218	     17.17077738	    -14.24763661	      0.00000000	     -4.45703559	     -0.30058097	     11.81834349	      0.21498351	      0.00375217	     31.59605295	     -6.41869327	      0.00000000	      0.13343737	      0.17827679	     -1.09206623	      0.24780654	      0.23710813	     -1.16032037	      0.21922426	      0.43346219	     -1.16032037	      0.15250557	      0.43346219	     -0.95555795	      0.12390994	      0.36354203	     -0.88730381	      0.07624611	      0.27615075	     -0.81904967	      0.95312979	      2.01670272	     -6.07374477	      0.00000000	      0.00000000	     27.44513688	      8.84285495	     15.73736895	     10.81511071	    -10.03852745	    184.05797198	      1.61846200	      4.35443905	     -6.09011339	     -5.85822112	     13.94630997	    -13.13938470	    163.17256091	     10.24869960	     10.67292364	     -0.39519005	     -6.12734545
